Coordinates
version=1
nRows=16
nColumns=36
inDegrees=yes

Units are S.I. units (second, meters, Newtons, ...)
If the header above contains a line with 'inDegrees', this indicates whether rotational values are in degrees (yes) or radians (no).

endheader
time	pelvis_tilt	pelvis_list	pelvis_rotation	pelvis_tx	pelvis_ty	pelvis_tz	hip_flexion_r	hip_adduction_r	hip_rotation_r	knee_angle_r	knee_angle_r_beta	ankle_angle_r	subtalar_angle_r	mtp_angle_r	hip_flexion_l	hip_adduction_l	hip_rotation_l	knee_angle_l	knee_angle_l_beta	ankle_angle_l	subtalar_angle_l	mtp_angle_l	lumbar_extension	lumbar_bending	lumbar_rotation	arm_flex_r	arm_add_r	arm_rot_r	elbow_flex_r	pro_sup_r	arm_flex_l	arm_add_l	arm_rot_l	elbow_flex_l	pro_sup_l
      5.98333330	      0.65998696	      0.18293972	     12.33313295	      1.02618805	      0.88173910	      0.14346878	      7.91717438	     -8.00675896	    -14.15824585	     17.72163279	      0.30930084	     13.50157339	     -9.62157996	     -7.49999987	     10.49853372	    -12.73829824	     -7.87419107	     18.24076943	      0.31836148	      7.06147026	     -9.47203245	     -7.49999987	    -23.71201517	      5.63013073	     -3.42148241	     81.87280524	      7.67844364	     65.52571600	    104.61880624	     88.59915054	     86.40490586	     -4.14181522	     62.40698327	    122.30183701	     99.09417653
      6.00000000	     -0.71925756	     -0.22233100	     12.84418884	      1.01613167	      0.87499423	      0.14508412	     12.26576213	     -8.71353013	    -14.01146990	     22.44772613	      0.39178673	     14.94238437	     -9.92453160	     -7.49999987	     15.19854310	    -13.15331613	     -6.51747728	     22.90177258	      0.39971134	      9.22085088	    -10.34180875	     -7.49999987	    -24.34777318	      6.12120902	     -3.14042345	     83.11184316	      7.35887866	     66.01410870	    105.37381620	     89.15218970	     87.06716615	     -4.32804875	     62.64916712	    123.08801038	     98.96408859
      6.01666670	     -2.44079945	     -0.80807741	     13.48581836	      1.00574215	      0.86390820	      0.14612034	     17.42888387	     -9.60070475	    -14.37818918	     27.93849688	      0.48761876	     17.12957081	     -9.57488122	     -7.49999987	     20.70852634	    -13.52324290	     -5.14335667	     28.12988198	      0.49095906	     11.72386210	    -10.87433836	     -7.49999987	    -25.11352144	      6.77509895	     -2.58648559	     84.85564232	      5.71140130	     66.20965262	    105.77280180	     90.11366326	     88.92276385	     -3.60941965	     64.03886963	    123.81302011	     99.62319307
      6.03333330	     -4.33741558	     -1.48103544	     14.02489443	      0.99590868	      0.85191341	      0.14697868	     23.00039571	    -10.64811724	    -14.99965477	     33.76298489	      0.58927525	     19.86497384	     -8.47460447	     -7.49999987	     26.56313385	    -13.82359036	     -4.01544025	     33.50516948	      0.58477552	     14.11093962	    -11.09371350	     -7.49999987	    -25.49288124	      7.38706431	     -2.14195250	     86.78246459	      4.94501480	     66.61943828	    107.62964618	     90.01464940	     90.14371802	     -2.94930972	     64.32485428	    123.47898146	     99.33973642
      6.05000000	     -6.35290630	     -2.15994618	     14.28131486	      0.98948179	      0.83670250	      0.14374715	     28.74322236	    -11.88228683	    -15.63880629	     39.62582741	      0.69160116	     22.86540188	     -6.78490896	     -7.49999987	     32.29987585	    -14.05776855	     -3.24929656	     38.61617748	      0.67397944	     16.36207829	    -11.10642142	     -7.49999987	    -25.50374844	      7.93577181	     -1.67995621	     87.69136535	      3.26518091	     67.09785405	    108.36059147	     90.07879209	     90.80507407	     -2.94576741	     64.82142432	    123.36772908	     99.26708743
      6.06666670	     -8.21517987	     -2.73775514	     14.25602513	      0.99046651	      0.82847410	      0.14303969	     33.78226783	    -13.03377739	    -16.05274285	     44.63973221	      0.77911030	     25.49153435	     -4.75137845	     -7.49999987	     37.25977843	    -14.30680325	     -2.91527009	     43.00613826	      0.75059871	     18.19679837	    -11.01781761	     -7.49999987	    -24.92354307	      8.11451871	     -0.86686953	     86.99209138	      2.46160708	     68.38334137	    111.27172146	     91.20253252	     89.79930525	     -0.82366801	     66.81674600	    124.92868655	     99.85467402
      6.08333330	    -10.22454800	     -3.23666815	     14.08907358	      0.98506470	      0.81634814	      0.14131492	     38.78507241	    -14.30905971	    -16.29699722	     49.33114273	      0.86099086	     27.44507054	     -3.03388792	     -7.49999987	     42.20679153	    -14.48507349	     -2.77055563	     47.14449532	      0.82282667	     19.70694001	    -10.91638513	     -7.49999987	    -24.84037260	      8.31744235	     -0.80804740	     86.32858495	      0.65406321	     67.59544993	    111.70568283	     87.32795378	     89.55488536	     -1.41051675	     67.78969151	    124.85823271	     96.29314846
      6.10000000	    -12.28624214	     -3.73372003	     13.71294089	      0.97962054	      0.80187594	      0.13997145	     43.69131866	    -15.45320066	    -16.38117572	     53.62170647	      0.93587533	     29.10472531	     -1.30152716	     -7.49999987	     46.96721589	    -14.73941767	     -2.71620950	     50.97635425	      0.88970522	     21.37125304	    -10.42210811	     -7.49999987	    -24.42246740	      8.16765819	     -0.38485201	     86.55575606	     -0.41093860	     68.14650042	    113.97795253	     87.58582452	     89.63489259	     -1.27682327	     68.32773279	    124.00864365	     96.16735810
      6.11666670	    -13.38746341	     -3.94781839	     13.22388320	      0.97924670	      0.79090958	      0.14016427	     47.22617665	    -16.37312565	    -16.25994471	     57.22943109	      0.99884200	     30.19222272	     -0.46343145	     -7.49999987	     50.32176047	    -15.04949501	     -2.75160045	     54.39149715	      0.94931071	     22.81105162	    -10.41499367	     -7.49999987	    -25.41322346	      8.06506398	      0.41510723	     86.56023455	     -1.32754347	     68.27585735	    114.09329497	     87.89874599	     89.50160527	     -1.90977298	     68.20199507	    122.90917484	     96.48098165
      6.13333330	    -16.12916481	     -4.45446424	     12.62893727	      0.97406219	      0.77098549	      0.14385094	     52.83151093	    -17.26172452	    -15.68567336	     61.25950184	      1.06918001	     31.09337379	      0.39889024	     -7.49999987	     55.62661087	    -15.49397442	     -2.86882291	     58.09374841	      1.01392718	     24.34720652	     -9.53848365	     -7.49999987	    -23.78023643	      7.40501762	      1.82726468	     84.77648527	     -4.07637518	     67.18885755	    115.45543225	     93.08636659	     88.70813669	     -0.95261451	     68.74195541	    122.24620330	    101.30451309
      6.15000000	    -17.99448061	     -4.72258104	     12.11467176	      0.96735978	      0.76118299	      0.14228938	     57.31396886	    -18.08311695	    -15.10878715	     64.83383124	      1.13156382	     31.72729176	      0.97056921	     -7.49999987	     59.86345423	    -15.85656248	     -2.85040955	     61.38222519	      1.07132193	     25.66707708	     -9.07092124	     -7.49999987	    -23.51704028	      7.18215260	      2.06224017	     84.40593639	     -3.40350319	     69.97484220	    116.64123867	     92.46659490	     88.00454098	     -1.63996341	     68.91484203	    121.24161578	    100.63912974
      6.16666670	    -19.50141700	     -4.97237210	     11.66824323	      0.96733042	      0.74783887	      0.14325678	     61.22734228	    -18.77390607	    -14.59429560	     68.13353476	      1.18915451	     32.36828982	      1.45862992	     -7.49999987	     63.53693810	    -16.28101103	     -2.71886365	     64.41575089	      1.12426694	     26.95352093	     -8.50460716	     -7.49999987	    -23.74428848	      6.98162578	      2.65254242	     83.68459821	     -4.52760646	     69.76771396	    116.16158167	     92.52985743	     87.50612745	     -1.64444773	     69.60071443	    120.34912341	    100.60863462
      6.18333330	    -21.09540865	     -5.16451967	     11.30833102	      0.96032956	      0.73540810	      0.14190447	     65.13797080	    -19.40534976	    -13.92891637	     71.12404059	      1.24134869	     32.66580685	      1.40943726	     -7.49999987	     67.20101026	    -16.59984221	     -2.63731907	     67.21119902	      1.17305672	     27.82505173	     -8.18905529	     -7.49999987	    -23.46347247	      6.67226361	      3.09819711	     83.08354207	     -3.73225620	     73.01096444	    119.33555757	     93.13042944	     86.86329037	     -1.10143409	     70.23813668	    119.76528854	    100.88631339
      6.20000000	    -22.49749970	     -5.38039033	     11.02949921	      0.95265324	      0.72202201	      0.13972370	     68.89412191	    -20.00491117	    -13.25460454	     74.03298872	      1.29211941	     32.89064861	      1.27408020	     -7.49999987	     70.81834613	    -16.86547175	     -2.38925070	     70.04651545	      1.22254232	     28.42298304	     -8.10037786	     -7.49999987	    -23.68254903	      6.38977270	      4.35603910	     83.12575765	     -5.72947519	     73.74700930	    120.15354173	     93.98473382	     87.08513779	      0.40674866	     70.99308055	    117.11405343	    101.81102718
      6.21666670	    -23.69825643	     -5.54964109	     10.79250297	      0.95088532	      0.70791887	      0.13945955	     72.38338603	    -20.54132125	    -12.57184795	     76.76850400	      1.33986316	     33.11001768	      1.07030020	     -7.49999987	     74.16266888	    -17.06247513	     -2.06529399	     72.75134577	      1.26975052	     28.93598786	     -8.17711042	     -7.49999987	    -23.68030656	      6.22095278	      4.87423423	     83.38274405	     -5.51434476	     77.83096706	    122.09366894	     97.04152012	     86.91995952	      1.27186248	     71.63946652	    116.93373969	    103.98737332
      6.23333330	    -24.36472810	     -5.69723832	     10.62519249	      0.94958201	      0.69506633	      0.13976577	     75.17784212	    -20.94226311	    -11.95030628	     79.29308471	      1.38392540	     33.39411854	      0.76402489	     -7.49999987	     76.85494890	    -17.23530143	     -1.60598265	     75.24213575	      1.31322301	     29.47253197	     -8.30933446	     -7.49999987	    -24.29205580	      6.08307295	      5.27726244	     82.70982610	     -5.68130482	     78.97879195	    121.54139432	     97.07258081	     86.63670541	      1.61658720	     71.90948002	    115.90757353	    104.00897546
